<svg viewBox="0 0 150 24" fill="none" xmlns="http://www.w3.org/2000/svg" role="img" aria-label="ARDINSYS">
  <path fill-rule="evenodd" clip-rule="evenodd" d="M125.898 10.2468H125.672L120.312 0H131.278L125.898 10.2468Z" fill="#EB1A28"/>
  <path fill-rule="evenodd" clip-rule="evenodd" d="M144.318.021c-4.833 3.327-4.566 7.331.8 12.013 5.339 4.654 5.655 8.638.945 11.951h-17.762v-8.543L136.904.021h7.414Zm-29.653 0 8.605 15.421v8.543h-14.477c4.723-3.313 4.415-7.297-.924-11.951-1.67-1.451-2.848-2.834-3.532-4.148-.959-1.862-.959-3.587 0-5.175.561-.945 1.465-1.841 2.711-2.69h7.617Z" fill="#EEF5F9"/>
  <path d="M5.414 24H0L8.249.105h6.51L22.996 24h-5.414L11.597 5.565h-.187L5.414 24Zm-.339-9.393h12.788v3.944H5.075v-3.944ZM25.875 24V.105h9.428c1.804 0 3.346.32 4.626.962 1.279.642 2.256 1.548 2.929 2.719.673 1.17 1.009 2.546 1.009 4.124 0 1.587-.343 2.95-1.027 4.09-.684 1.139-1.674 2.012-2.969 2.619-1.295.607-2.861.91-4.697.91h-6.312v-4.06h5.496c.964 0 1.766-.132 2.404-.397.637-.264 1.114-.661 1.429-1.19.315-.529.473-1.186.473-1.972 0-.793-.158-1.462-.473-2.006-.315-.545-.794-.959-1.435-1.242-.642-.284-1.449-.426-2.421-.426h-3.407V24h-5.053Zm12.904-10.874L44.718 24H39.14l-5.81-10.874h5.449ZM55.907 24h-8.47V.105h8.54c2.404 0 4.472.476 6.207 1.429 1.735.953 3.071 2.32 4.008 4.101.937 1.781 1.406 3.913 1.406 6.394 0 2.489-.469 4.628-1.406 6.417-.938 1.789-2.279 3.162-4.025 4.119-1.746.956-3.833 1.435-6.26 1.435Zm-3.419-4.329h3.209c1.493 0 2.752-.266 3.775-.799 1.022-.533 1.792-1.361 2.309-2.485.518-1.124.777-2.577.777-4.358 0-1.766-.259-3.209-.777-4.329-.517-1.12-1.285-1.944-2.304-2.473-1.019-.53-2.275-.794-3.768-.794h-3.221V19.67ZM76.391.105V24h-5.052V.105h5.052ZM100.545.105V24h-4.364L85.786 8.96h-.176V24h-5.052V.105h4.434l10.314 15.027h.21V.105h5.029Z" fill="#EB1A28"/>
</svg>
